<mxfile host="app.diagrams.net" modified="2023-05-06T16:24:10.253Z" agent="Mozilla/5.0 (Macintosh; Intel Mac OS X 10_15_7) AppleWebKit/537.36 (KHTML, like Gecko) Chrome/112.0.0.0 Safari/537.36" version="21.2.9" etag="envNBws-Og41IshzofRJ" type="github">
  <diagram name="페이지-1" id="WOGD2oLeKRttm7e-v-vj">
    <mxGraphModel>
      <root>
        <mxCell id="0" />
        <mxCell id="1" parent="0" />
      </root>
    </mxGraphModel>
  </diagram>
</mxfile>
